<?xml version="1.0" standalone="no"?>
<!DOCTYPE svg PUBLIC "-//W3C//DTD SVG 20010904//EN"
 "http://www.w3.org/TR/2001/REC-SVG-20010904/DTD/svg10.dtd">
<svg version="1.0" xmlns="http://www.w3.org/2000/svg"
 width="16.000000pt" height="16.000000pt" viewBox="0 0 16.000000 16.000000"
 preserveAspectRatio="xMidYMid meet">
<metadata>
Created by potrace 1.11, written by Peter Selinger 2001-2013
</metadata>
<g transform="translate(0.000000,16.000000) scale(0.002286,-0.002286)"
fill="#000000" stroke="none">
<path d="M5513 6604 c-93 -32 -138 -135 -99 -227 36 -85 93 -103 318 -102
l166 1 -25 -31 c-14 -16 -62 -70 -107 -119 -44 -48 -90 -98 -101 -110 -11 -13
-60 -66 -108 -119 -49 -53 -102 -113 -118 -133 -79 -100 -30 -247 92 -272 19
-4 205 -7 414 -7 378 1 381 1 422 24 102 58 114 203 23 279 -35 29 -71 35
-242 36 -97 1 -179 4 -182 7 -3 3 9 21 26 40 110 121 201 221 249 273 60 64
123 134 159 176 48 55 63 110 48 170 -11 40 -61 97 -98 112 -37 16 -792 17
-837 2z"/>
<path d="M3478 5805 c-2 -2 -59 -6 -128 -9 -69 -3 -135 -8 -147 -10 -12 -3
-50 -7 -84 -11 -35 -4 -66 -8 -69 -10 -3 -2 -25 -6 -50 -10 -25 -4 -47 -8 -50
-10 -3 -2 -22 -6 -42 -9 -150 -24 -429 -121 -634 -222 -488 -240 -884 -601
-1160 -1059 -68 -114 -149 -276 -189 -382 -27 -71 -37 -80 -77 -74 -19 2 -180
-31 -228 -47 -289 -100 -497 -320 -586 -618 -47 -158 -40 -365 17 -538 112
-334 457 -594 804 -605 l40 -1 28 -73 c41 -103 149 -318 210 -417 235 -382
596 -728 987 -947 120 -67 149 -82 251 -126 241 -105 535 -190 735 -212 27 -3
65 -8 84 -11 92 -14 466 -21 530 -10 14 2 55 7 92 11 71 6 74 7 208 31 254 46
571 158 799 283 41 23 75 41 77 41 9 0 220 141 292 196 385 290 703 701 878
1136 39 97 39 98 74 99 19 0 44 2 55 4 11 2 40 7 65 10 101 14 266 84 361 154
246 180 381 450 374 748 -2 65 -6 129 -9 143 -3 14 -8 39 -12 55 -10 51 -46
147 -77 205 -147 277 -425 462 -729 485 -34 3 -62 6 -63 7 -1 2 -15 35 -30 73
-64 162 -195 409 -277 520 -4 6 -31 42 -59 80 -142 193 -337 393 -526 538 -68
52 -232 167 -238 167 -3 0 -34 18 -70 40 -183 112 -463 228 -700 289 -114 30
-271 61 -335 67 -30 3 -68 7 -85 9 -16 2 -86 7 -155 10 -69 4 -130 8 -137 10
-6 2 -13 2 -15 0z m427 -377 c11 -3 40 -9 65 -13 186 -29 472 -131 680 -242
567 -301 974 -785 1169 -1388 23 -71 45 -135 49 -142 5 -9 25 -8 82 2 225 39
412 -15 551 -159 100 -104 150 -221 155 -366 4 -118 -7 -173 -56 -275 -43 -90
-137 -195 -206 -230 -21 -11 -46 -26 -55 -32 -9 -7 -53 -23 -100 -34 -83 -22
-172 -22 -330 -3 l-46 6 -13 -49 c-50 -190 -180 -484 -286 -648 -366 -568
-938 -956 -1599 -1084 -96 -19 -122 -23 -245 -37 -63 -7 -405 -8 -435 -1 -11
3 -49 8 -85 12 -36 3 -119 17 -185 30 -705 142 -1310 585 -1656 1210 -65 118
-131 276 -180 430 l-44 137 -55 -7 c-129 -15 -240 -17 -292 -5 -186 42 -343
178 -410 353 -29 75 -33 101 -33 207 0 116 26 209 83 295 136 208 347 293 618
250 43 -7 82 -10 85 -6 3 3 23 60 44 126 94 292 191 483 382 743 18 26 31 41
103 122 159 181 342 336 549 464 84 52 311 170 311 162 0 -2 -7 -22 -15 -45
-99 -282 73 -645 378 -795 180 -88 396 -139 597 -139 70 -1 219 11 230 18 4 2
22 7 41 10 229 38 473 232 510 404 37 175 -71 381 -261 496 -58 35 -149 72
-200 82 -14 2 -42 8 -63 13 -21 4 -77 7 -125 6 -153 -5 -291 -41 -345 -91 -76
-72 -75 -203 3 -268 47 -40 83 -42 185 -9 69 22 107 28 165 26 41 -1 82 -3 90
-6 8 -3 29 -8 45 -13 86 -22 165 -91 165 -144 0 -65 -153 -158 -290 -176 -292
-39 -617 50 -762 210 -62 68 -78 148 -46 233 34 91 172 214 303 269 62 26 179
61 228 68 20 3 54 8 75 11 128 19 421 27 477 12z"/>
<path d="M2015 3226 c-73 -44 -96 -123 -74 -251 36 -211 167 -389 356 -484
105 -53 179 -71 303 -71 87 -1 131 7 213 35 96 33 170 80 247 155 81 80 113
127 151 221 38 93 44 125 44 230 0 78 -2 89 -28 122 -75 99 -226 85 -283 -25
-8 -15 -17 -56 -20 -90 -13 -133 -95 -244 -213 -289 -202 -77 -420 63 -438
281 -2 30 -15 75 -27 100 -42 86 -148 116 -231 66z"/>
<path d="M3725 3236 c-40 -18 -74 -56 -89 -100 -26 -74 -4 -210 53 -331 103
-219 300 -360 536 -383 291 -27 567 137 678 403 51 124 66 257 37 323 -45 100
-169 133 -255 68 -41 -31 -61 -75 -70 -149 -7 -68 -10 -78 -37 -134 -80 -165
-303 -227 -458 -128 -95 61 -141 139 -155 265 -9 76 -27 113 -70 145 -43 34
-122 43 -170 21z"/>
<path d="M3430 2193 c-99 -18 -151 -155 -97 -255 57 -104 230 -100 281 6 33
69 23 147 -26 207 -27 33 -100 52 -158 42z"/>
<path d="M6115 5194 c-74 -25 -116 -88 -110 -165 5 -87 64 -148 152 -159 l42
-5 -83 -92 c-113 -126 -129 -161 -106 -243 11 -39 59 -89 101 -107 17 -8 114
-12 263 -13 214 -1 241 1 281 19 85 37 123 147 80 230 -20 40 -80 80 -134 89
l-42 7 81 90 c45 50 88 102 96 117 42 80 0 195 -82 229 -42 18 -489 21 -539 3z"/>
</g>
</svg>
